<svg width="26" height="24" viewBox="0 0 26 24" fill="none" xmlns="http://www.w3.org/2000/svg">
<path d="M2.46 19.7991L6.688 18.7095L7.428 18.9955C9.128 19.6507 11.018 20 13 20C19.62 20 25 15.9725 25 11.5C25 7.02745 19.62 3 13 3C6.38 3 1 7.02745 1 11.5C1 13.1691 1.78 14.8629 3.214 16.311L3.904 17.0065L2.458 19.7975L2.46 19.7991Z" stroke="black" stroke-width="1.5"/>
<path d="M6.89615 10.8257C6.84244 10.4282 6.55777 10.1758 6.12271 10.1758C5.54801 10.1758 5.19889 10.6108 5.19889 11.3682C5.19889 12.1523 5.55875 12.5605 6.11734 12.5605C6.53629 12.5605 6.82633 12.335 6.89615 11.9536L7.81998 11.959C7.74478 12.6519 7.15396 13.3662 6.10123 13.3662C5.0485 13.3662 4.26432 12.6465 4.26432 11.3682C4.26432 10.0845 5.06461 9.37012 6.10123 9.37012C7.0358 9.37012 7.7233 9.89648 7.81998 10.8257H6.89615ZM9.69986 13.3662C8.78678 13.3662 8.23355 12.7593 8.23355 11.8623C8.23355 10.9653 8.78678 10.3584 9.69986 10.3584C10.6129 10.3584 11.1662 10.9653 11.1662 11.8623C11.1662 12.7593 10.6129 13.3662 9.69986 13.3662ZM9.70523 12.6841C10.049 12.6841 10.2423 12.3457 10.2423 11.8569C10.2423 11.3682 10.049 11.0298 9.70523 11.0298C9.35074 11.0298 9.15738 11.3682 9.15738 11.8569C9.15738 12.3457 9.35074 12.6841 9.70523 12.6841ZM13.2716 10.396V11.062H12.7184V13.3125H11.8107V11.062H11.4132V10.396H11.8107V10.2349C11.8107 9.57422 12.1974 9.24121 12.8044 9.24121C13.0138 9.24121 13.1696 9.25732 13.3254 9.28955V9.96094C13.2018 9.9502 13.1212 9.94482 13.0783 9.94482C12.8473 9.94482 12.7184 10.0361 12.7184 10.2563V10.396H13.2716ZM15.3503 10.396V11.062H14.797V13.3125H13.8893V11.062H13.4919V10.396H13.8893V10.2349C13.8893 9.57422 14.276 9.24121 14.883 9.24121C15.0924 9.24121 15.2482 9.25732 15.404 9.28955V9.96094C15.2804 9.9502 15.1999 9.94482 15.1569 9.94482C14.9259 9.94482 14.797 10.0361 14.797 10.2563V10.396H15.3503ZM17.0475 13.3662C16.1344 13.3662 15.5758 12.7969 15.5758 11.8677C15.5758 10.9653 16.1398 10.3584 17.0153 10.3584C17.8317 10.3584 18.4225 10.8794 18.4225 11.8462V12.0771H16.4674V12.0933C16.4674 12.4692 16.6984 12.7109 17.0636 12.7109C17.3107 12.7109 17.4933 12.6035 17.5685 12.4316H18.4118C18.3044 13.001 17.8048 13.3662 17.0475 13.3662ZM16.4674 11.5454H17.5793C17.5739 11.2339 17.3483 11.0137 17.0368 11.0137C16.7145 11.0137 16.4809 11.2419 16.4674 11.5454ZM20.2487 13.3662C19.3356 13.3662 18.777 12.7969 18.777 11.8677C18.777 10.9653 19.341 10.3584 20.2165 10.3584C21.0329 10.3584 21.6237 10.8794 21.6237 11.8462V12.0771H19.6686V12.0933C19.6686 12.4692 19.8996 12.7109 20.2648 12.7109C20.5119 12.7109 20.6945 12.6035 20.7697 12.4316H21.6129C21.5055 13.001 21.006 13.3662 20.2487 13.3662ZM19.6686 11.5454H20.7804C20.7751 11.2339 20.5495 11.0137 20.2379 11.0137C19.9157 11.0137 19.682 11.2419 19.6686 11.5454Z" fill="black"/>
</svg>
