<svg width="24" height="24" viewBox="0 0 24 24" fill="none" xmlns="http://www.w3.org/2000/svg">
<path d="M22.113 16.4596C23.2441 12.312 19.8507 10.8038 17.9654 11.5579L18.3425 13.4432C18.9709 13.4432 20.7587 14.2664 19.8507 16.0825C19.4736 16.8366 18.7195 17.2137 17.9654 17.2137L15.7031 19.0989C18.3425 20.2301 21.4855 18.7602 22.113 16.4596Z" fill="#FFFDF5" stroke="#865B3C" stroke-width="0.75"/>
<path d="M9.66772 8.54057C4.92753 8.54055 3.25787 8.91762 1.74966 10.0488C0.241458 15.3275 2.50376 23.2455 10.0448 22.8685C17.5858 22.4914 17.9628 17.5898 18.3399 12.3111C18.6366 8.157 14.9599 8.54058 9.66772 8.54057Z" fill="#FFFDF5"/>
<ellipse cx="10.1426" cy="9.85884" rx="7.54101" ry="1.69673" fill="#F9EDE0"/>
<path d="M10.0664 9.67188C13.4688 9.67188 16.2863 10.0895 16.7773 10.6338C15.5266 11.1814 12.9913 11.5576 10.0664 11.5576C7.14159 11.5576 4.60622 11.1814 3.35547 10.6338C3.84664 10.0896 6.6641 9.67188 10.0664 9.67188Z" fill="#AF764A"/>
<path d="M9.94629 7.86816C12.4723 7.8736 14.9239 8.1418 16.7344 8.54883L16.7539 8.55371L16.7725 8.55957C17.3325 8.74847 17.909 8.96815 18.3115 9.5498C18.7046 10.1181 18.8906 10.9694 18.8906 12.3086C18.8906 15.3495 18.5164 17.693 17.3477 19.6641C16.3005 21.4296 14.2234 22.5055 11.9844 22.9082C11.3196 23.0277 10.6332 23.086 9.94629 23.0879V23.0889L9.94434 23.0879L9.94336 23.0889V23.0879C9.25661 23.086 8.5708 23.0277 7.90625 22.9082C5.66715 22.5056 3.59023 21.4296 2.54297 19.6641C1.20128 17.4015 1 15.3416 1 12.3086C1.00002 10.9693 1.18593 10.1181 1.5791 9.5498C1.98168 8.96823 2.5581 8.74847 3.11816 8.55957L3.13672 8.55371L3.15625 8.54883C4.96664 8.14186 7.41762 7.87361 9.94336 7.86816V7.86719L9.94434 7.86816H9.94629ZM9.94434 8.61621C7.49076 8.62173 5.10358 8.88185 3.33984 9.27637C2.79295 9.46166 2.44304 9.6203 2.19629 9.97656C1.93734 10.3508 1.75003 11.0088 1.75 12.3086C1.75 15.3079 1.9532 17.1981 3.18848 19.2812C4.08358 20.7902 5.91964 21.7889 8.03906 22.1699C8.66273 22.282 9.3042 22.336 9.94434 22.3379C10.585 22.336 11.2274 22.2821 11.8516 22.1699C13.9709 21.7888 15.8071 20.7902 16.7021 19.2812C17.769 17.482 18.1406 15.2998 18.1406 12.3086C18.1406 11.009 17.9532 10.3509 17.6943 9.97656C17.4476 9.62019 17.0976 9.46166 16.5508 9.27637C14.7867 8.88174 12.3985 8.62165 9.94434 8.61621Z" fill="#845A3B"/>
<path d="M10.3727 1.98054C10.8302 1.38766 10.6675 1.10478 10.5633 1.05416C10.271 0.912124 9.91512 1.05418 9.61007 1.42471C8.84745 2.35105 8.84747 3.46272 9.41942 4.3891C9.99137 5.31546 9.80073 6.05656 9.61008 6.42711C9.41943 6.79766 9.80073 7.35349 10.3727 6.79766C11.1353 6.05656 10.9446 4.57437 10.5633 4.01855C10.182 3.46273 9.8789 2.62034 10.3727 1.98054Z" fill="#D4A77C"/>
<path d="M13.1161 2.92755C13.4822 2.44583 13.352 2.216 13.2686 2.17487C13.0348 2.05946 12.7501 2.17488 12.506 2.47594C11.8959 3.22859 11.8959 4.13182 12.3535 4.8845C12.8111 5.63717 12.6586 6.23931 12.506 6.54039C12.3535 6.84145 12.6586 7.29307 13.1161 6.84145C13.7262 6.23931 13.5737 5.03503 13.2686 4.58343C12.9636 4.13183 12.7211 3.44738 13.1161 2.92755Z" fill="#D4A77C"/>
<path d="M7.45986 2.92755C7.82591 2.44583 7.69573 2.216 7.61239 2.17487C7.37852 2.05946 7.09381 2.17488 6.84977 2.47594C6.23968 3.22859 6.23969 4.13182 6.69725 4.8845C7.15482 5.63717 7.0023 6.23931 6.84978 6.54039C6.69726 6.84145 7.0023 7.29307 7.45987 6.84145C8.06994 6.23931 7.91743 5.03503 7.61238 4.58343C7.30734 4.13183 7.06484 3.44738 7.45986 2.92755Z" fill="#D4A77C"/>
<path d="M8.82422 16.459C8.82422 16.836 9.20127 17.2131 9.95537 17.2131C10.7095 17.2131 11.0865 16.836 11.0865 16.459" stroke="#472E21" stroke-width="0.75" stroke-linecap="round"/>
<ellipse cx="6.6381" cy="15.7043" rx="0.829511" ry="0.942626" fill="#472E21"/>
<ellipse cx="13.2358" cy="15.7043" rx="0.829511" ry="0.942626" fill="#472E21"/>
<ellipse cx="5.43091" cy="17.1198" rx="0.942626" ry="0.848363" fill="#FFD3BE"/>
<ellipse cx="14.4778" cy="17.1198" rx="0.942626" ry="0.848363" fill="#FED1BE"/>
</svg>
