<svg width="36" height="39" viewBox="0 0 36 39" fill="none" xmlns="http://www.w3.org/2000/svg">
<g filter="url(#filter0_d_11585_10871)">
<path d="M31.875 23.4997C33.375 17.9997 28.875 15.9997 26.375 16.9997L26.875 19.4997C27.7083 19.4997 30.0792 20.5914 28.875 22.9997C28.375 23.9997 27.375 24.4997 26.375 24.4997L23.375 26.9997C26.875 28.4997 31.0429 26.5505 31.875 23.4997Z" fill="#FFFDF5" stroke="#70543C" stroke-width="0.75"/>
<path d="M15.374 13.0006C9.08807 13.0006 6.87396 13.5006 4.87395 15.0007C2.87395 22.0007 5.87395 32.5006 15.874 32.0006C25.874 31.5006 26.374 25.0006 26.874 18.0006C27.2674 12.492 22.3918 13.0007 15.374 13.0006Z" fill="#FFFDF5"/>
<ellipse cx="16" cy="14.75" rx="10" ry="2.25" fill="#F9EDE0"/>
<path d="M15.9004 14.5C20.4126 14.5 24.149 15.0536 24.7998 15.7754C23.1412 16.5016 19.779 17 15.9004 17C12.0211 17 8.65828 16.5018 7 15.7754C7.64958 15.0534 11.3872 14.5 15.9004 14.5Z" fill="#AF764A"/>
<path d="M15.7412 12.2324C19.0816 12.2398 22.3246 12.5955 24.7188 13.1338L24.7383 13.1377L24.7559 13.1445C25.4982 13.3949 26.2274 13.6758 26.7363 14.4111C27.2358 15.1331 27.4824 16.2306 27.4824 18C27.4824 22.0243 26.9862 25.1047 25.4531 27.6904C24.0894 29.9901 21.3746 31.4041 18.4248 31.9346C17.5491 32.092 16.6454 32.1714 15.7412 32.1738C14.8369 32.1714 13.9334 32.092 13.0576 31.9346C10.1077 31.4042 7.3931 29.9902 6.0293 27.6904C4.26754 24.7194 4 22.0164 4 18C4.00003 16.2305 4.2466 15.1331 4.74609 14.4111C5.25506 13.6758 5.98417 13.3949 6.72656 13.1445L6.74414 13.1377L6.76367 13.1338C9.15794 12.5955 12.4008 12.2397 15.7412 12.2324ZM15.7412 12.9824C12.4724 12.9895 9.29286 13.3353 6.94531 13.8613C6.21666 14.108 5.71584 14.3288 5.36328 14.8379C4.99801 15.3658 4.75003 16.27 4.75 18C4.75 21.9829 5.01929 24.5169 6.6748 27.3086C7.88653 29.3516 10.3603 30.6874 13.1904 31.1963C14.0251 31.3463 14.8838 31.4214 15.7412 31.4238C16.5985 31.4213 17.4575 31.3463 18.292 31.1963C21.122 30.6874 23.5959 29.3515 24.8076 27.3086C26.239 24.8947 26.7324 21.9748 26.7324 18C26.7324 16.2701 26.4844 15.3659 26.1191 14.8379C25.7666 14.3287 25.2657 14.108 24.5371 13.8613C22.1897 13.3353 19.01 12.9895 15.7412 12.9824Z" fill="#70543C"/>
<path d="M16.3047 4.30027C16.9115 3.51407 16.6957 3.13895 16.5576 3.07183C16.1699 2.88347 15.698 3.07185 15.2935 3.56321C14.2822 4.7916 14.2822 6.26578 15.0406 7.49422C15.7991 8.72266 15.5463 9.70542 15.2935 10.1968C15.0407 10.6882 15.5463 11.4253 16.3048 10.6882C17.316 9.70542 17.0632 7.73991 16.5576 7.00285C16.0519 6.26579 15.65 5.1487 16.3047 4.30027Z" fill="#D4A77C"/>
<path d="M19.9438 5.55647C20.4292 4.91768 20.2566 4.6129 20.1461 4.55836C19.8359 4.40532 19.4584 4.55838 19.1348 4.95761C18.3257 5.95568 18.3258 7.15344 18.9325 8.15156C19.5393 9.14966 19.337 9.94815 19.1348 10.3474C18.9325 10.7466 19.337 11.3455 19.9438 10.7466C20.7528 9.94815 20.5506 8.35118 20.1461 7.75231C19.7415 7.15345 19.42 6.24582 19.9438 5.55647Z" fill="#D4A77C"/>
<path d="M12.4438 5.55647C12.9292 4.91768 12.7566 4.6129 12.6461 4.55836C12.3359 4.40532 11.9584 4.55838 11.6348 4.95761C10.8257 5.95568 10.8258 7.15344 11.4325 8.15156C12.0393 9.14966 11.837 9.94815 11.6348 10.3474C11.4325 10.7466 11.837 11.3455 12.4438 10.7466C13.2528 9.94815 13.0506 8.35118 12.6461 7.75231C12.2415 7.15345 11.92 6.24582 12.4438 5.55647Z" fill="#D4A77C"/>
<path d="M14.25 23.5C14.25 24 14.75 24.5 15.75 24.5C16.75 24.5 17.25 24 17.25 23.5" stroke="#472E21" stroke-width="0.75" stroke-linecap="round"/>
<ellipse cx="11.35" cy="22.5" rx="1.1" ry="1.25" fill="#472E21"/>
<ellipse cx="20.1" cy="22.5" rx="1.1" ry="1.25" fill="#472E21"/>
<ellipse cx="9.75" cy="24.375" rx="1.25" ry="1.125" fill="#FFD3BE"/>
<ellipse cx="21.75" cy="24.375" rx="1.25" ry="1.125" fill="#FED1BE"/>
</g>
<defs>
<filter id="filter0_d_11585_10871" x="0.8" y="2.8" width="34.9508" height="35.5738" filterUnits="userSpaceOnUse" color-interpolation-filters="sRGB">
<feFlood flood-opacity="0" result="BackgroundImageFix"/>
<feColorMatrix in="SourceAlpha" type="matrix" values="0 0 0 0 0 0 0 0 0 0 0 0 0 0 0 0 0 0 127 0" result="hardAlpha"/>
<feOffset dy="3"/>
<feGaussianBlur stdDeviation="1.6"/>
<feComposite in2="hardAlpha" operator="out"/>
<feColorMatrix type="matrix" values="0 0 0 0 0 0 0 0 0 0 0 0 0 0 0 0 0 0 0.12 0"/>
<feBlend mode="normal" in2="BackgroundImageFix" result="effect1_dropShadow_11585_10871"/>
<feBlend mode="normal" in="SourceGraphic" in2="effect1_dropShadow_11585_10871" result="shape"/>
</filter>
</defs>
</svg>
